<svg xmlns="http://www.w3.org/2000/svg" viewBox="0 0 1600 900" width="1600" height="900" preserveAspectRatio="xMidYMid slice"><defs><linearGradient id="l1" x1="0" y1="0" x2="0" y2="1"><stop offset="0" stop-color="#04050d"/><stop offset="1" stop-color="#151b3a"/></linearGradient><radialGradient id="g2"><stop offset="0" stop-color="#6d8cff" stop-opacity="0.45"/><stop offset="0.25" stop-color="#6d8cff" stop-opacity="0.279"/><stop offset="0.5" stop-color="#6d8cff" stop-opacity="0.126"/><stop offset="0.75" stop-color="#6d8cff" stop-opacity="0.036"/><stop offset="1" stop-color="#6d8cff" stop-opacity="0.0"/></radialGradient><linearGradient id="l3" x1="0.3" y1="0.1" x2="0.7" y2="0.8"><stop offset="0" stop-color="#f5d0a9"/><stop offset="0.6" stop-color="#c27a4a"/><stop offset="1" stop-color="#2a1408"/></linearGradient></defs><rect width="1600" height="900" fill="url(#l1)"/><circle cx="924.3" cy="28.1" r="1.8" fill="#ffffff" fill-opacity="0.39"/><circle cx="898.9" cy="338.5" r="1.5" fill="#ffffff" fill-opacity="0.45"/><circle cx="1492.6" cy="67.6" r="1.5" fill="#ffffff" fill-opacity="0.67"/><circle cx="1547.1" cy="510.4" r="2.4" fill="#ffffff" fill-opacity="0.86"/><circle cx="939.8" cy="27.2" r="1.5" fill="#ffffff" fill-opacity="0.9"/><circle cx="587.7" cy="399.9" r="1.5" fill="#ffffff" fill-opacity="0.64"/><circle cx="1520.6" cy="594.6" r="2.4" fill="#ffffff" fill-opacity="0.87"/><circle cx="851.2" cy="540.7" r="2.4" fill="#ffffff" fill-opacity="0.74"/><circle cx="861" cy="638" r="1.2" fill="#ffffff" fill-opacity="0.61"/><circle cx="867.2" cy="25" r="1.2" fill="#ffffff" fill-opacity="0.66"/><circle cx="868.8" cy="366.5" r="1.2" fill="#ffffff" fill-opacity="0.61"/><circle cx="1234.4" cy="761.6" r="1.5" fill="#ffffff" fill-opacity="0.66"/><circle cx="903.3" cy="398" r="1.8" fill="#ffffff" fill-opacity="0.71"/><circle cx="722.5" cy="210.2" r="1.8" fill="#ffffff" fill-opacity="0.58"/><circle cx="1538" cy="689.3" r="1.5" fill="#ffffff" fill-opacity="0.45"/><circle cx="518.7" cy="156.6" r="1.2" fill="#ffffff" fill-opacity="0.85"/><circle cx="539.1" cy="323.4" r="1.5" fill="#ffffff" fill-opacity="0.61"/><circle cx="356.6" cy="116.2" r="1.2" fill="#ffffff" fill-opacity="0.89"/><circle cx="224.3" cy="37.3" r="2.4" fill="#ffffff" fill-opacity="0.8"/><circle cx="1256.3" cy="890.8" r="1.5" fill="#ffffff" fill-opacity="0.5"/><circle cx="819.1" cy="664.1" r="2.4" fill="#ffffff" fill-opacity="0.4"/><circle cx="1202.8" cy="527.2" r="1.2" fill="#ffffff" fill-opacity="0.45"/><circle cx="1109.5" cy="459.3" r="2.4" fill="#ffffff" fill-opacity="0.57"/><circle cx="267.6" cy="349.9" r="1.8" fill="#ffffff" fill-opacity="0.7"/><circle cx="7.2" cy="199" r="1.8" fill="#ffffff" fill-opacity="0.93"/><circle cx="755.9" cy="19.5" r="1.2" fill="#ffffff" fill-opacity="0.51"/><circle cx="323.6" cy="495.6" r="1.5" fill="#ffffff" fill-opacity="0.78"/><circle cx="151.3" cy="141.2" r="2.4" fill="#ffffff" fill-opacity="0.73"/><circle cx="433.9" cy="185.1" r="1.8" fill="#ffffff" fill-opacity="0.44"/><circle cx="263.3" cy="759.3" r="1.8" fill="#ffffff" fill-opacity="0.72"/><circle cx="184.5" cy="117.4" r="2.4" fill="#ffffff" fill-opacity="0.63"/><circle cx="551.2" cy="10.6" r="1.8" fill="#ffffff" fill-opacity="0.72"/><circle cx="924.8" cy="238.7" r="1.5" fill="#ffffff" fill-opacity="0.41"/><circle cx="1216.3" cy="635.1" r="1.2" fill="#ffffff" fill-opacity="0.53"/><circle cx="1394.8" cy="22.1" r="1.8" fill="#ffffff" fill-opacity="0.63"/><circle cx="842.2" cy="767.2" r="1.2" fill="#ffffff" fill-opacity="0.65"/><circle cx="1492.3" cy="367.1" r="2.4" fill="#ffffff" fill-opacity="0.45"/><circle cx="442.3" cy="781.9" r="1.2" fill="#ffffff" fill-opacity="0.51"/><circle cx="214.6" cy="198.1" r="1.5" fill="#ffffff" fill-opacity="0.94"/><circle cx="933.9" cy="800.3" r="2.4" fill="#ffffff" fill-opacity="0.92"/><circle cx="781.7" cy="659.3" r="2.4" fill="#ffffff" fill-opacity="0.87"/><circle cx="700.7" cy="33.3" r="1.2" fill="#ffffff" fill-opacity="0.57"/><circle cx="330.2" cy="290" r="1.8" fill="#ffffff" fill-opacity="0.49"/><circle cx="77.1" cy="678.5" r="1.8" fill="#ffffff" fill-opacity="0.83"/><circle cx="521.2" cy="715.9" r="1.5" fill="#ffffff" fill-opacity="0.75"/><circle cx="802.6" cy="386.8" r="1.2" fill="#ffffff" fill-opacity="0.88"/><circle cx="365.2" cy="202.8" r="1.8" fill="#ffffff" fill-opacity="0.95"/><circle cx="250.4" cy="723.4" r="1.5" fill="#ffffff" fill-opacity="0.48"/><circle cx="1416" cy="6.3" r="1.8" fill="#ffffff" fill-opacity="0.67"/><circle cx="516.1" cy="281.4" r="2.4" fill="#ffffff" fill-opacity="0.5"/><circle cx="982.7" cy="326.9" r="1.5" fill="#ffffff" fill-opacity="0.79"/><circle cx="298.1" cy="62.6" r="2.4" fill="#ffffff" fill-opacity="0.5"/><circle cx="1305.3" cy="423" r="2.4" fill="#ffffff" fill-opacity="0.56"/><circle cx="1123.2" cy="800.1" r="2.4" fill="#ffffff" fill-opacity="0.77"/><circle cx="567" cy="337.2" r="1.2" fill="#ffffff" fill-opacity="0.41"/><circle cx="1269.5" cy="132.4" r="1.2" fill="#ffffff" fill-opacity="0.73"/><circle cx="1484" cy="468.1" r="1.8" fill="#ffffff" fill-opacity="0.78"/><circle cx="1265.3" cy="648.1" r="2.4" fill="#ffffff" fill-opacity="0.7"/><circle cx="299.4" cy="25.7" r="1.8" fill="#ffffff" fill-opacity="0.94"/><circle cx="605.9" cy="662.5" r="2.4" fill="#ffffff" fill-opacity="0.85"/><circle cx="1071.9" cy="108.2" r="1.5" fill="#ffffff" fill-opacity="0.77"/><circle cx="838.4" cy="598.9" r="1.8" fill="#ffffff" fill-opacity="0.73"/><circle cx="858.4" cy="369.9" r="1.2" fill="#ffffff" fill-opacity="0.78"/><circle cx="916.8" cy="437.9" r="2.4" fill="#ffffff" fill-opacity="0.5"/><circle cx="707.5" cy="40.1" r="2.4" fill="#ffffff" fill-opacity="0.45"/><circle cx="564.7" cy="9.3" r="2.4" fill="#ffffff" fill-opacity="0.37"/><circle cx="355.1" cy="543.4" r="2.4" fill="#ffffff" fill-opacity="0.74"/><circle cx="1192.6" cy="93.5" r="2.4" fill="#ffffff" fill-opacity="0.66"/><circle cx="63.3" cy="486.6" r="1.5" fill="#ffffff" fill-opacity="0.93"/><circle cx="207" cy="824.4" r="1.2" fill="#ffffff" fill-opacity="0.91"/><circle cx="1542" cy="704.3" r="1.5" fill="#ffffff" fill-opacity="0.89"/><circle cx="112.3" cy="136.3" r="2.4" fill="#ffffff" fill-opacity="0.61"/><circle cx="1445.4" cy="467.7" r="1.5" fill="#ffffff" fill-opacity="0.7"/><circle cx="1264.8" cy="310.9" r="2.4" fill="#ffffff" fill-opacity="0.65"/><circle cx="1440.8" cy="773.4" r="1.8" fill="#ffffff" fill-opacity="0.76"/><circle cx="1426.5" cy="423.6" r="2.4" fill="#ffffff" fill-opacity="0.66"/><circle cx="597.2" cy="374" r="1.8" fill="#ffffff" fill-opacity="0.81"/><circle cx="903.5" cy="402.5" r="1.8" fill="#ffffff" fill-opacity="0.39"/><circle cx="1155.4" cy="796.4" r="1.8" fill="#ffffff" fill-opacity="0.77"/><circle cx="840" cy="564.2" r="1.5" fill="#ffffff" fill-opacity="0.51"/><circle cx="812.9" cy="590.1" r="2.4" fill="#ffffff" fill-opacity="0.72"/><circle cx="1042.1" cy="592" r="1.8" fill="#ffffff" fill-opacity="0.8"/><circle cx="588.3" cy="783.8" r="2.4" fill="#ffffff" fill-opacity="0.45"/><circle cx="1378.6" cy="477" r="1.8" fill="#ffffff" fill-opacity="0.36"/><circle cx="72.9" cy="442.2" r="1.5" fill="#ffffff" fill-opacity="0.78"/><circle cx="770.7" cy="760.2" r="1.5" fill="#ffffff" fill-opacity="0.51"/><circle cx="1294.1" cy="106.6" r="1.2" fill="#ffffff" fill-opacity="0.4"/><circle cx="286.6" cy="56.8" r="1.2" fill="#ffffff" fill-opacity="0.85"/><circle cx="1362.9" cy="348.8" r="2.4" fill="#ffffff" fill-opacity="0.56"/><circle cx="123.9" cy="467.4" r="1.8" fill="#ffffff" fill-opacity="0.35"/><circle cx="1193.2" cy="808.5" r="1.5" fill="#ffffff" fill-opacity="0.83"/><circle cx="438.7" cy="445.1" r="1.8" fill="#ffffff" fill-opacity="0.54"/><circle cx="1081.9" cy="639.2" r="1.8" fill="#ffffff" fill-opacity="0.65"/><circle cx="1411.7" cy="358.9" r="1.8" fill="#ffffff" fill-opacity="0.82"/><circle cx="1567.2" cy="881.4" r="1.2" fill="#ffffff" fill-opacity="0.93"/><circle cx="1258.5" cy="614" r="1.8" fill="#ffffff" fill-opacity="0.82"/><circle cx="1127.1" cy="836.8" r="1.5" fill="#ffffff" fill-opacity="0.71"/><circle cx="1317.7" cy="431.3" r="1.8" fill="#ffffff" fill-opacity="0.55"/><circle cx="897.6" cy="480.9" r="2.4" fill="#ffffff" fill-opacity="0.4"/><circle cx="295.5" cy="747.5" r="1.8" fill="#ffffff" fill-opacity="0.89"/><circle cx="674.3" cy="0.9" r="2.4" fill="#ffffff" fill-opacity="0.88"/><circle cx="691.2" cy="234.9" r="2.4" fill="#ffffff" fill-opacity="0.55"/><circle cx="86.6" cy="213.2" r="1.8" fill="#ffffff" fill-opacity="0.81"/><circle cx="64.9" cy="224.9" r="2.4" fill="#ffffff" fill-opacity="0.38"/><circle cx="1106.8" cy="535.2" r="1.2" fill="#ffffff" fill-opacity="0.64"/><circle cx="1447.8" cy="565" r="1.2" fill="#ffffff" fill-opacity="0.84"/><circle cx="1094.2" cy="156.9" r="1.2" fill="#ffffff" fill-opacity="0.39"/><circle cx="1522" cy="357" r="1.2" fill="#ffffff" fill-opacity="0.48"/><circle cx="1151.8" cy="486" r="2.4" fill="#ffffff" fill-opacity="0.5"/><circle cx="972.4" cy="225.6" r="2.4" fill="#ffffff" fill-opacity="0.87"/><circle cx="1465" cy="65.3" r="2.4" fill="#ffffff" fill-opacity="0.93"/><circle cx="1477.7" cy="727.8" r="1.8" fill="#ffffff" fill-opacity="0.63"/><circle cx="20.5" cy="546.6" r="1.5" fill="#ffffff" fill-opacity="0.51"/><circle cx="456.3" cy="213.5" r="2.4" fill="#ffffff" fill-opacity="0.75"/><circle cx="156" cy="137.3" r="2.4" fill="#ffffff" fill-opacity="0.68"/><circle cx="47.4" cy="684.8" r="1.5" fill="#ffffff" fill-opacity="0.81"/><circle cx="1211.2" cy="208.4" r="2.4" fill="#ffffff" fill-opacity="0.35"/><circle cx="857.3" cy="350.4" r="1.8" fill="#ffffff" fill-opacity="0.74"/><circle cx="1187.6" cy="693.7" r="1.8" fill="#ffffff" fill-opacity="0.6"/><circle cx="1135.2" cy="487.9" r="2.4" fill="#ffffff" fill-opacity="0.9"/><circle cx="1120" cy="654.3" r="609.1" fill="url(#g2)"/><ellipse cx="1120" cy="654.3" rx="666.3" ry="137.1" fill="none" stroke="#f3e3c3" stroke-width="26.7" stroke-opacity="0.7" transform="rotate(15.2 1120 654.3)"/><circle cx="1120" cy="654.3" r="380.7" fill="url(#l3)"/><rect x="809.2" y="434.4" width="621.7" height="22.8" fill="#2a1408" fill-opacity="0.18"/><rect x="753.5" y="551.2" width="733" height="22.8" fill="#2a1408" fill-opacity="0.18"/><rect x="741.2" y="692.4" width="757.6" height="22.8" fill="#2a1408" fill-opacity="0.18"/><rect x="784.7" y="834.5" width="670.7" height="22.8" fill="#2a1408" fill-opacity="0.18"/><path d="M453.7,654.3A666.3,137.1 0 0 0 1786.3,654.3" fill="none" stroke="#f3e3c3" stroke-width="26.7" stroke-opacity="0.85" transform="rotate(15.2 1120 654.3)"/><circle cx="421.9" cy="221.1" r="45.7" fill="#f5d0a9" fill-opacity="0.85"/></svg>
