<svg xmlns="http://www.w3.org/2000/svg" viewBox="0 0 1600 900" width="1600" height="900" preserveAspectRatio="xMidYMid slice"><defs><linearGradient id="l1" x1="0" y1="0" x2="0" y2="1"><stop offset="0" stop-color="#1c1917"/><stop offset="1" stop-color="#44403c"/></linearGradient></defs><rect width="1600" height="900" fill="url(#l1)"/><polygon points="227.9,842.5 -450,988.7 -237.7,328.6" fill="#f99e1a" fill-opacity="0.357"/><polygon points="529.4,103.7 819.8,832.1 43.8,719.4" fill="#f99e1a" fill-opacity="0.235"/><polygon points="862.3,194 1033.7,-52.4 1161.4,219.2" fill="#218ffe" fill-opacity="0.376"/><polygon points="698.3,956.5 833.4,715.7 974.4,953.1" fill="#218ffe" fill-opacity="0.314"/><polygon points="10.8,414.3 5.6,683.8 -225.1,544.6" fill="#f99e1a" fill-opacity="0.373"/><circle cx="42.1" cy="383.3" r="409.4" fill="#f99e1a" fill-opacity="0.184"/><circle cx="1596.5" cy="304.9" r="190.1" fill="#218ffe" fill-opacity="0.243"/><polygon points="50.1,426 -120,192.8 167,162.1" fill="#218ffe" fill-opacity="0.42"/><polygon points="1868.4,232.8 1339.4,785.9 1124.9,51.2" fill="#fafaf9" fill-opacity="0.376"/><circle cx="511.3" cy="508.6" r="161.3" fill="#218ffe" fill-opacity="0.267"/><polygon points="1113,383.7 1076.3,-382.5 1758.2,-31.2" fill="#218ffe" fill-opacity="0.286"/><circle cx="690.1" cy="408.8" r="151.3" fill="#fafaf9" fill-opacity="0.22"/><polygon points="843.8,446.9 628.7,300 863.5,187.1" fill="#fafaf9" fill-opacity="0.298"/><circle cx="149.4" cy="758.8" r="198.3" fill="#f99e1a" fill-opacity="0.224"/></svg>
