<svg xmlns="http://www.w3.org/2000/svg" viewBox="0 0 1600 900" width="1600" height="900" preserveAspectRatio="xMidYMid slice"><defs><linearGradient id="l1" x1="0" y1="0" x2="0" y2="1"><stop offset="0" stop-color="#02080c"/><stop offset="1" stop-color="#0b2a33"/></linearGradient><radialGradient id="g2"><stop offset="0" stop-color="#2dd4bf" stop-opacity="0.45"/><stop offset="0.25" stop-color="#2dd4bf" stop-opacity="0.279"/><stop offset="0.5" stop-color="#2dd4bf" stop-opacity="0.126"/><stop offset="0.75" stop-color="#2dd4bf" stop-opacity="0.036"/><stop offset="1" stop-color="#2dd4bf" stop-opacity="0.0"/></radialGradient><linearGradient id="l3" x1="0.7" y1="0.1" x2="0.3" y2="0.8"><stop offset="0" stop-color="#a7f3d0"/><stop offset="0.6" stop-color="#2f8a7a"/><stop offset="1" stop-color="#06201c"/></linearGradient></defs><rect width="1600" height="900" fill="url(#l1)"/><circle cx="876.2" cy="310.9" r="2.4" fill="#ffffff" fill-opacity="0.81"/><circle cx="1495.2" cy="86.2" r="1.8" fill="#ffffff" fill-opacity="0.71"/><circle cx="1461.8" cy="360" r="1.5" fill="#ffffff" fill-opacity="0.46"/><circle cx="1177.7" cy="550.3" r="1.2" fill="#ffffff" fill-opacity="0.38"/><circle cx="1294.2" cy="33.7" r="1.5" fill="#ffffff" fill-opacity="0.67"/><circle cx="325.1" cy="282.3" r="2.4" fill="#ffffff" fill-opacity="0.56"/><circle cx="225.8" cy="626.2" r="1.5" fill="#ffffff" fill-opacity="0.58"/><circle cx="356.1" cy="90.3" r="1.5" fill="#ffffff" fill-opacity="0.88"/><circle cx="1408.8" cy="79.5" r="2.4" fill="#ffffff" fill-opacity="0.61"/><circle cx="1142.2" cy="269.5" r="1.5" fill="#ffffff" fill-opacity="0.64"/><circle cx="550.8" cy="788.9" r="1.8" fill="#ffffff" fill-opacity="0.41"/><circle cx="690.6" cy="482.9" r="1.2" fill="#ffffff" fill-opacity="0.54"/><circle cx="1039.2" cy="818.4" r="1.5" fill="#ffffff" fill-opacity="0.53"/><circle cx="723.9" cy="317.6" r="1.5" fill="#ffffff" fill-opacity="0.5"/><circle cx="45.4" cy="14.9" r="1.2" fill="#ffffff" fill-opacity="0.35"/><circle cx="1559.9" cy="346.8" r="1.8" fill="#ffffff" fill-opacity="0.43"/><circle cx="1125.6" cy="20.4" r="2.4" fill="#ffffff" fill-opacity="0.39"/><circle cx="388.2" cy="706.9" r="1.8" fill="#ffffff" fill-opacity="0.9"/><circle cx="712" cy="101.7" r="1.5" fill="#ffffff" fill-opacity="0.38"/><circle cx="252.8" cy="62.9" r="1.8" fill="#ffffff" fill-opacity="0.86"/><circle cx="602.5" cy="385.4" r="1.5" fill="#ffffff" fill-opacity="0.89"/><circle cx="646.6" cy="230.6" r="1.2" fill="#ffffff" fill-opacity="0.69"/><circle cx="1061.9" cy="494.6" r="1.8" fill="#ffffff" fill-opacity="0.8"/><circle cx="970.1" cy="575.4" r="1.8" fill="#ffffff" fill-opacity="0.44"/><circle cx="957.3" cy="444.1" r="2.4" fill="#ffffff" fill-opacity="0.52"/><circle cx="503.3" cy="74.4" r="2.4" fill="#ffffff" fill-opacity="0.81"/><circle cx="1284.3" cy="555" r="2.4" fill="#ffffff" fill-opacity="0.56"/><circle cx="466.9" cy="68.7" r="1.8" fill="#ffffff" fill-opacity="0.68"/><circle cx="1048.9" cy="713.8" r="1.5" fill="#ffffff" fill-opacity="0.66"/><circle cx="244.5" cy="864" r="1.8" fill="#ffffff" fill-opacity="0.35"/><circle cx="1502.7" cy="850.7" r="1.5" fill="#ffffff" fill-opacity="0.48"/><circle cx="795.7" cy="75.4" r="1.5" fill="#ffffff" fill-opacity="0.5"/><circle cx="1515.9" cy="680" r="1.8" fill="#ffffff" fill-opacity="0.4"/><circle cx="738.4" cy="710.9" r="1.8" fill="#ffffff" fill-opacity="0.76"/><circle cx="523.2" cy="31.8" r="1.2" fill="#ffffff" fill-opacity="0.87"/><circle cx="1465.5" cy="545.5" r="1.5" fill="#ffffff" fill-opacity="0.42"/><circle cx="288.5" cy="518" r="2.4" fill="#ffffff" fill-opacity="0.49"/><circle cx="518.8" cy="733.8" r="1.5" fill="#ffffff" fill-opacity="0.88"/><circle cx="1029.3" cy="779.1" r="2.4" fill="#ffffff" fill-opacity="0.74"/><circle cx="269.4" cy="697.6" r="2.4" fill="#ffffff" fill-opacity="0.91"/><circle cx="1528.4" cy="417.4" r="2.4" fill="#ffffff" fill-opacity="0.56"/><circle cx="255.8" cy="633.5" r="2.4" fill="#ffffff" fill-opacity="0.58"/><circle cx="1234.8" cy="147.5" r="2.4" fill="#ffffff" fill-opacity="0.53"/><circle cx="304.4" cy="42.3" r="1.8" fill="#ffffff" fill-opacity="0.7"/><circle cx="825.7" cy="569.3" r="1.8" fill="#ffffff" fill-opacity="0.75"/><circle cx="29.9" cy="457" r="2.4" fill="#ffffff" fill-opacity="0.54"/><circle cx="1150.8" cy="726.1" r="2.4" fill="#ffffff" fill-opacity="0.7"/><circle cx="1269.4" cy="120.5" r="1.2" fill="#ffffff" fill-opacity="0.78"/><circle cx="601.6" cy="334.6" r="1.8" fill="#ffffff" fill-opacity="0.37"/><circle cx="849.5" cy="898.2" r="2.4" fill="#ffffff" fill-opacity="0.54"/><circle cx="329.1" cy="814.8" r="1.2" fill="#ffffff" fill-opacity="0.63"/><circle cx="889" cy="525.4" r="2.4" fill="#ffffff" fill-opacity="0.47"/><circle cx="1076.5" cy="536.9" r="1.2" fill="#ffffff" fill-opacity="0.69"/><circle cx="291" cy="484.6" r="1.2" fill="#ffffff" fill-opacity="0.39"/><circle cx="1227.8" cy="14.6" r="2.4" fill="#ffffff" fill-opacity="0.78"/><circle cx="1468.6" cy="408.8" r="1.2" fill="#ffffff" fill-opacity="0.93"/><circle cx="619.1" cy="630.8" r="1.2" fill="#ffffff" fill-opacity="0.77"/><circle cx="726.3" cy="455.7" r="1.2" fill="#ffffff" fill-opacity="0.84"/><circle cx="1310.9" cy="540.7" r="1.2" fill="#ffffff" fill-opacity="0.81"/><circle cx="1221.4" cy="414.1" r="2.4" fill="#ffffff" fill-opacity="0.77"/><circle cx="134.5" cy="172.3" r="2.4" fill="#ffffff" fill-opacity="0.38"/><circle cx="688.7" cy="739.1" r="2.4" fill="#ffffff" fill-opacity="0.71"/><circle cx="263.3" cy="135.5" r="1.2" fill="#ffffff" fill-opacity="0.51"/><circle cx="1338.6" cy="712.9" r="1.8" fill="#ffffff" fill-opacity="0.84"/><circle cx="101.4" cy="618.3" r="2.4" fill="#ffffff" fill-opacity="0.66"/><circle cx="1221.2" cy="35.9" r="1.2" fill="#ffffff" fill-opacity="0.7"/><circle cx="1494.6" cy="253.2" r="1.5" fill="#ffffff" fill-opacity="0.58"/><circle cx="489" cy="53.4" r="1.5" fill="#ffffff" fill-opacity="0.88"/><circle cx="949.6" cy="74.3" r="1.2" fill="#ffffff" fill-opacity="0.71"/><circle cx="1361.7" cy="700.9" r="1.2" fill="#ffffff" fill-opacity="0.46"/><circle cx="236.5" cy="210.5" r="1.8" fill="#ffffff" fill-opacity="0.77"/><circle cx="845.4" cy="496.6" r="1.5" fill="#ffffff" fill-opacity="0.38"/><circle cx="1592" cy="272.5" r="1.5" fill="#ffffff" fill-opacity="0.78"/><circle cx="230.2" cy="697.2" r="2.4" fill="#ffffff" fill-opacity="0.82"/><circle cx="1543.2" cy="125.9" r="1.5" fill="#ffffff" fill-opacity="0.36"/><circle cx="1199.6" cy="183.3" r="1.8" fill="#ffffff" fill-opacity="0.78"/><circle cx="571.3" cy="85.9" r="2.4" fill="#ffffff" fill-opacity="0.86"/><circle cx="34.3" cy="391.2" r="2.4" fill="#ffffff" fill-opacity="0.88"/><circle cx="836.4" cy="229.1" r="1.5" fill="#ffffff" fill-opacity="0.56"/><circle cx="986.6" cy="739.5" r="1.5" fill="#ffffff" fill-opacity="0.62"/><circle cx="907.2" cy="102.5" r="1.2" fill="#ffffff" fill-opacity="0.89"/><circle cx="1528.9" cy="757.7" r="1.8" fill="#ffffff" fill-opacity="0.61"/><circle cx="42.9" cy="248" r="1.2" fill="#ffffff" fill-opacity="0.61"/><circle cx="488.9" cy="476.5" r="1.8" fill="#ffffff" fill-opacity="0.7"/><circle cx="433.1" cy="545.2" r="2.4" fill="#ffffff" fill-opacity="0.79"/><circle cx="935.8" cy="557.4" r="2.4" fill="#ffffff" fill-opacity="0.51"/><circle cx="1487" cy="240" r="1.8" fill="#ffffff" fill-opacity="0.86"/><circle cx="1268" cy="788.3" r="1.2" fill="#ffffff" fill-opacity="0.53"/><circle cx="415.2" cy="761.3" r="1.5" fill="#ffffff" fill-opacity="0.35"/><circle cx="555.8" cy="688.9" r="1.8" fill="#ffffff" fill-opacity="0.93"/><circle cx="485.5" cy="98.2" r="1.8" fill="#ffffff" fill-opacity="0.44"/><circle cx="823.5" cy="313.7" r="1.5" fill="#ffffff" fill-opacity="0.9"/><circle cx="1201.6" cy="789.7" r="1.2" fill="#ffffff" fill-opacity="0.54"/><circle cx="1299.7" cy="696.2" r="1.2" fill="#ffffff" fill-opacity="0.38"/><circle cx="1364.2" cy="829.1" r="1.2" fill="#ffffff" fill-opacity="0.59"/><circle cx="1150.8" cy="495.3" r="1.8" fill="#ffffff" fill-opacity="0.62"/><circle cx="463.3" cy="173.6" r="2.4" fill="#ffffff" fill-opacity="0.63"/><circle cx="447.9" cy="458.5" r="1.2" fill="#ffffff" fill-opacity="0.88"/><circle cx="573.9" cy="648.5" r="1.5" fill="#ffffff" fill-opacity="0.63"/><circle cx="1035" cy="23.5" r="1.5" fill="#ffffff" fill-opacity="0.43"/><circle cx="178.3" cy="662.4" r="1.5" fill="#ffffff" fill-opacity="0.92"/><circle cx="1390.5" cy="712.8" r="2.4" fill="#ffffff" fill-opacity="0.75"/><circle cx="1098.9" cy="141.1" r="2.4" fill="#ffffff" fill-opacity="0.81"/><circle cx="1252.3" cy="578.6" r="1.2" fill="#ffffff" fill-opacity="0.49"/><circle cx="1034.7" cy="328.2" r="1.8" fill="#ffffff" fill-opacity="0.55"/><circle cx="322.2" cy="350.4" r="1.5" fill="#ffffff" fill-opacity="0.67"/><circle cx="1270.7" cy="71" r="1.8" fill="#ffffff" fill-opacity="0.75"/><circle cx="1017.5" cy="71.5" r="1.2" fill="#ffffff" fill-opacity="0.77"/><circle cx="130.1" cy="636.4" r="2.4" fill="#ffffff" fill-opacity="0.59"/><circle cx="1092.9" cy="356.4" r="1.2" fill="#ffffff" fill-opacity="0.7"/><circle cx="691.2" cy="711" r="1.2" fill="#ffffff" fill-opacity="0.44"/><circle cx="1069.1" cy="700.7" r="1.2" fill="#ffffff" fill-opacity="0.38"/><circle cx="972.9" cy="763.5" r="2.4" fill="#ffffff" fill-opacity="0.5"/><circle cx="773.9" cy="117.4" r="1.5" fill="#ffffff" fill-opacity="0.74"/><circle cx="566.6" cy="798.7" r="1.5" fill="#ffffff" fill-opacity="0.92"/><circle cx="1128.6" cy="25.3" r="1.2" fill="#ffffff" fill-opacity="0.74"/><circle cx="23.7" cy="576.2" r="1.5" fill="#ffffff" fill-opacity="0.37"/><circle cx="348.9" cy="886.3" r="1.5" fill="#ffffff" fill-opacity="0.71"/><circle cx="219.9" cy="155.8" r="1.8" fill="#ffffff" fill-opacity="0.47"/><circle cx="904" cy="186.5" r="1.5" fill="#ffffff" fill-opacity="0.48"/><circle cx="352" cy="630.1" r="552.8" fill="url(#g2)"/><ellipse cx="352" cy="630.1" rx="604.6" ry="124.4" fill="none" stroke="#d1fae5" stroke-width="24.2" stroke-opacity="0.7" transform="rotate(-9.5 352 630.1)"/><circle cx="352" cy="630.1" r="345.5" fill="url(#l3)"/><rect x="77.4" y="420.4" width="549.1" height="20.7" fill="#06201c" fill-opacity="0.18"/><rect x="19.4" y="536.7" width="665.3" height="20.7" fill="#06201c" fill-opacity="0.18"/><rect x="7.7" y="659.4" width="688.5" height="20.7" fill="#06201c" fill-opacity="0.18"/><rect x="43" y="784.7" width="617.9" height="20.7" fill="#06201c" fill-opacity="0.18"/><path d="M-252.6,630.1A604.6,124.4 0 0 0 956.6,630.1" fill="none" stroke="#d1fae5" stroke-width="24.2" stroke-opacity="0.85" transform="rotate(-9.5 352 630.1)"/><circle cx="1350.5" cy="223" r="41.5" fill="#a7f3d0" fill-opacity="0.85"/></svg>
