<svg xmlns="http://www.w3.org/2000/svg" viewBox="0 0 1600 900" width="1600" height="900" preserveAspectRatio="xMidYMid slice"><defs><style>.m3{animation:breathe 7.9s ease-in-out -6.2s infinite alternate;transform-box:fill-box;transform-origin:center}.m4{animation:cross 120.3s linear -41.3s infinite normal;transform-box:fill-box;transform-origin:center}.m5{animation:cross 119.3s linear -78.5s infinite normal;transform-box:fill-box;transform-origin:center}.m6{animation:cross 142.4s linear -98.9s infinite normal;transform-box:fill-box;transform-origin:center}.m8{animation:pan 22.4s ease-in-out -19s infinite alternate;transform-box:fill-box;transform-origin:center;--d:5px}.m10{animation:pan 22.4s ease-in-out -19s infinite alternate;transform-box:fill-box;transform-origin:center;--d:8.6px}.m12{animation:pan 22.4s ease-in-out -19s infinite alternate;transform-box:fill-box;transform-origin:center;--d:13.2px}.m14{animation:pan 22.4s ease-in-out -19s infinite alternate;transform-box:fill-box;transform-origin:center;--d:18.7px}.m16{animation:pan 22.4s ease-in-out -19s infinite alternate;transform-box:fill-box;transform-origin:center;--d:25px}@keyframes breathe{from{opacity:.7;transform:scale(.96)}to{opacity:1;transform:scale(1.04)}}@keyframes cross{from{transform:translateX(0)}to{transform:translateX(2500px)}}@keyframes pan{from{transform:translateX(calc(var(--d)*-1))}to{transform:translateX(var(--d))}}@media (prefers-reduced-motion:reduce){*{animation:none!important}}</style><linearGradient id="l1" x1="0" y1="0" x2="0" y2="1"><stop offset="0" stop-color="#f3b562"/><stop offset="1" stop-color="#fde4b4"/></linearGradient><radialGradient id="g2"><stop offset="0" stop-color="#fff6dc" stop-opacity="0.85"/><stop offset="0.25" stop-color="#fff6dc" stop-opacity="0.527"/><stop offset="0.5" stop-color="#fff6dc" stop-opacity="0.238"/><stop offset="0.75" stop-color="#fff6dc" stop-opacity="0.068"/><stop offset="1" stop-color="#fff6dc" stop-opacity="0.0"/></radialGradient><linearGradient id="l7" x1="0" y1="0" x2="1" y2="0.3"><stop offset="0" stop-color="#d69154"/><stop offset="1" stop-color="#bb7845"/></linearGradient><linearGradient id="l9" x1="0" y1="0" x2="1" y2="0.3"><stop offset="0" stop-color="#c37f49"/><stop offset="1" stop-color="#af6d3e"/></linearGradient><linearGradient id="l11" x1="0" y1="0" x2="1" y2="0.3"><stop offset="0" stop-color="#b06d3e"/><stop offset="1" stop-color="#a36137"/></linearGradient><linearGradient id="l13" x1="0" y1="0" x2="1" y2="0.3"><stop offset="0" stop-color="#9e5c33"/><stop offset="1" stop-color="#975630"/></linearGradient><linearGradient id="l15" x1="0" y1="0" x2="1" y2="0.3"><stop offset="0" stop-color="#8b4a29"/><stop offset="1" stop-color="#8b4a29"/></linearGradient></defs><rect width="1600" height="900" fill="url(#l1)"/><circle cx="543.7" cy="285.7" r="405" fill="url(#g2)" class="m3"/><g fill="#fff6dc" fill-opacity="0.2" class="m4"><ellipse cx="-660.3" cy="243.2" rx="180.2" ry="13.3"/></g><g fill="#fff6dc" fill-opacity="0.2" class="m5"><ellipse cx="-678.1" cy="262.7" rx="189.1" ry="8.1"/></g><g fill="#fff6dc" fill-opacity="0.2" class="m6"><ellipse cx="-565.4" cy="281.4" rx="132.7" ry="8.8"/></g><path d="M-80,423.1C-22.4,436 147.4,503.5 265.4,500.3C383.3,497.1 520.5,403.9 627.5,403.7C734.6,403.4 793.9,495.4 907.7,498.8C1021.4,502.1 1181.3,431.4 1310.1,423.8C1438.8,416.3 1618.3,448.4 1680,453.3L1680,980L-80,980z" fill="url(#l7)" class="m8"/><path d="M-80,499.3C9,509.8 304.6,557.5 453.8,562.3C603,567.2 686.6,526.9 815.2,528.4C943.8,530 1081.2,582.3 1225.4,571.6C1369.5,560.9 1604.2,482.1 1680,464.2L1680,980L-80,980z" fill="url(#l9)" class="m10"/><path d="M-80,667.6C-19.4,662.4 157.9,653.2 283.4,636.9C408.9,620.6 555.3,570.2 673.1,570C790.9,569.8 890.7,636.9 990.1,635.7C1089.5,634.4 1154.6,555.2 1269.6,562.6C1384.6,569.9 1611.6,660.3 1680,679.9L1680,980L-80,980z" fill="url(#l11)" class="m12"/><path d="M-80,705.8C-31.8,700.3 113.4,668.6 209.5,672.5C305.5,676.5 405.6,733.6 496.5,729.7C587.3,725.8 664.3,662.2 754.6,649.2C845,636.1 942,643.3 1038.7,651.3C1135.4,659.2 1227.9,682.8 1334.8,696.7C1441.6,710.6 1622.5,728.1 1680,734.4L1680,980L-80,980z" fill="url(#l13)" class="m14"/><path d="M-80,857.8C-7.7,855 241,858.8 353.7,841.1C466.4,823.3 495.5,766.3 596,751.2C696.6,736 853,747.6 957.1,750.1C1061.1,752.5 1099.7,765.2 1220.2,766C1340.7,766.9 1603.4,756.9 1680,755.1L1680,980L-80,980z" fill="url(#l15)" class="m16"/></svg>
