<svg xmlns="http://www.w3.org/2000/svg" viewBox="0 0 1600 900" width="1600" height="900" preserveAspectRatio="xMidYMid slice"><defs><style>.m2{animation:twinkle 4.5s ease-in-out -3.8s infinite normal;transform-box:fill-box;transform-origin:center}.m3{animation:twinkle 5.1s ease-in-out -1s infinite normal;transform-box:fill-box;transform-origin:center}.m4{animation:twinkle 4.5s ease-in-out -3s infinite normal;transform-box:fill-box;transform-origin:center}.m6{animation:breathe 8.8s ease-in-out -0.4s infinite alternate;transform-box:fill-box;transform-origin:center}.m7{animation:bob 8.8s ease-in-out -6.3s infinite alternate;transform-box:fill-box;transform-origin:center}.m9{animation:float 19.2s ease-in-out -12.8s infinite alternate;transform-box:fill-box;transform-origin:center}@keyframes bob{from{transform:translateY(0)}to{transform:translateY(5px)}}@keyframes breathe{from{opacity:.7;transform:scale(.96)}to{opacity:1;transform:scale(1.04)}}@keyframes float{from{transform:translate(-26px,-14px)}to{transform:translate(26px,14px)}}@keyframes twinkle{0%,100%{opacity:1}50%{opacity:.25}}@media (prefers-reduced-motion:reduce){*{animation:none!important}}</style><linearGradient id="l1" x1="0" y1="0" x2="0" y2="1"><stop offset="0" stop-color="#060310"/><stop offset="1" stop-color="#24103a"/></linearGradient><radialGradient id="g5"><stop offset="0" stop-color="#c084fc" stop-opacity="0.45"/><stop offset="0.25" stop-color="#c084fc" stop-opacity="0.279"/><stop offset="0.5" stop-color="#c084fc" stop-opacity="0.126"/><stop offset="0.75" stop-color="#c084fc" stop-opacity="0.036"/><stop offset="1" stop-color="#c084fc" stop-opacity="0.0"/></radialGradient><linearGradient id="l8" x1="0.3" y1="0.1" x2="0.7" y2="0.8"><stop offset="0" stop-color="#c4b5fd"/><stop offset="0.6" stop-color="#6d4bb5"/><stop offset="1" stop-color="#1a0e33"/></linearGradient></defs><rect width="1600" height="900" fill="url(#l1)"/><circle cx="935.4" cy="738.4" r="1.8" fill="#ffffff" fill-opacity="0.47" class="m3"/><circle cx="921.4" cy="571.9" r="2.4" fill="#ffffff" fill-opacity="0.83"/><circle cx="1120.7" cy="643.8" r="1.8" fill="#ffffff" fill-opacity="0.35"/><circle cx="218.8" cy="774.6" r="1.2" fill="#ffffff" fill-opacity="0.61"/><circle cx="450.4" cy="2.2" r="1.5" fill="#ffffff" fill-opacity="0.83" class="m2"/><circle cx="1439.9" cy="614" r="1.8" fill="#ffffff" fill-opacity="0.82"/><circle cx="49.5" cy="173.4" r="1.2" fill="#ffffff" fill-opacity="0.76" class="m4"/><circle cx="1007.7" cy="216.5" r="1.8" fill="#ffffff" fill-opacity="0.41" class="m3"/><circle cx="1522.8" cy="107.2" r="1.8" fill="#ffffff" fill-opacity="0.75" class="m4"/><circle cx="1279.6" cy="155.5" r="1.5" fill="#ffffff" fill-opacity="0.6"/><circle cx="1129.6" cy="317.5" r="2.4" fill="#ffffff" fill-opacity="0.6"/><circle cx="443" cy="815.3" r="1.2" fill="#ffffff" fill-opacity="0.69" class="m4"/><circle cx="134.9" cy="299.8" r="1.8" fill="#ffffff" fill-opacity="0.51"/><circle cx="631.2" cy="180.6" r="1.2" fill="#ffffff" fill-opacity="0.46"/><circle cx="1249.9" cy="125.4" r="2.4" fill="#ffffff" fill-opacity="0.5"/><circle cx="27.6" cy="489.2" r="1.5" fill="#ffffff" fill-opacity="0.54"/><circle cx="953.5" cy="848.6" r="1.5" fill="#ffffff" fill-opacity="0.44"/><circle cx="67.1" cy="813.1" r="1.8" fill="#ffffff" fill-opacity="0.57"/><circle cx="166.5" cy="785.4" r="2.4" fill="#ffffff" fill-opacity="0.88" class="m2"/><circle cx="1037.2" cy="38.3" r="2.4" fill="#ffffff" fill-opacity="0.53" class="m2"/><circle cx="34.3" cy="592.1" r="1.2" fill="#ffffff" fill-opacity="0.71"/><circle cx="436.4" cy="448" r="1.5" fill="#ffffff" fill-opacity="0.89"/><circle cx="37.2" cy="172.3" r="1.8" fill="#ffffff" fill-opacity="0.7" class="m4"/><circle cx="1390.9" cy="35.4" r="1.2" fill="#ffffff" fill-opacity="0.72" class="m4"/><circle cx="1243.9" cy="26.7" r="2.4" fill="#ffffff" fill-opacity="0.82"/><circle cx="1561" cy="731.3" r="1.8" fill="#ffffff" fill-opacity="0.77" class="m3"/><circle cx="1069.9" cy="686.9" r="1.2" fill="#ffffff" fill-opacity="0.59"/><circle cx="782.1" cy="18" r="2.4" fill="#ffffff" fill-opacity="0.79"/><circle cx="93.1" cy="615.8" r="1.8" fill="#ffffff" fill-opacity="0.52" class="m2"/><circle cx="760.8" cy="266.3" r="1.5" fill="#ffffff" fill-opacity="0.87" class="m4"/><circle cx="70.9" cy="70.2" r="2.4" fill="#ffffff" fill-opacity="0.66"/><circle cx="1370.8" cy="664.6" r="1.2" fill="#ffffff" fill-opacity="0.57"/><circle cx="1578.1" cy="727" r="1.5" fill="#ffffff" fill-opacity="0.84" class="m3"/><circle cx="748.4" cy="868.1" r="1.5" fill="#ffffff" fill-opacity="0.85" class="m2"/><circle cx="1114" cy="269.1" r="1.2" fill="#ffffff" fill-opacity="0.54"/><circle cx="781.9" cy="1" r="1.5" fill="#ffffff" fill-opacity="0.42"/><circle cx="725.7" cy="308.5" r="1.2" fill="#ffffff" fill-opacity="0.49"/><circle cx="382.3" cy="690.4" r="2.4" fill="#ffffff" fill-opacity="0.46"/><circle cx="1376.4" cy="200.3" r="2.4" fill="#ffffff" fill-opacity="0.73" class="m3"/><circle cx="1352.7" cy="889.8" r="2.4" fill="#ffffff" fill-opacity="0.65"/><circle cx="1193" cy="867.1" r="1.2" fill="#ffffff" fill-opacity="0.5"/><circle cx="994.6" cy="161" r="1.2" fill="#ffffff" fill-opacity="0.66" class="m3"/><circle cx="440.7" cy="122.7" r="1.5" fill="#ffffff" fill-opacity="0.95" class="m4"/><circle cx="537.6" cy="162.4" r="1.2" fill="#ffffff" fill-opacity="0.66"/><circle cx="685.2" cy="396.8" r="1.5" fill="#ffffff" fill-opacity="0.49"/><circle cx="286.1" cy="734.1" r="1.8" fill="#ffffff" fill-opacity="0.5" class="m4"/><circle cx="1250.9" cy="561.5" r="2.4" fill="#ffffff" fill-opacity="0.58" class="m3"/><circle cx="182.1" cy="816.1" r="1.2" fill="#ffffff" fill-opacity="0.67" class="m2"/><circle cx="775.1" cy="693.1" r="1.8" fill="#ffffff" fill-opacity="0.52" class="m3"/><circle cx="755.3" cy="646.8" r="1.2" fill="#ffffff" fill-opacity="0.82" class="m4"/><circle cx="651.2" cy="172.9" r="2.4" fill="#ffffff" fill-opacity="0.5"/><circle cx="887.2" cy="26.9" r="1.5" fill="#ffffff" fill-opacity="0.66"/><circle cx="299.3" cy="441.4" r="1.5" fill="#ffffff" fill-opacity="0.75"/><circle cx="320.9" cy="104.5" r="2.4" fill="#ffffff" fill-opacity="0.91" class="m3"/><circle cx="985.4" cy="811.5" r="2.4" fill="#ffffff" fill-opacity="0.7" class="m4"/><circle cx="1175.8" cy="553.3" r="1.2" fill="#ffffff" fill-opacity="0.52" class="m2"/><circle cx="829.3" cy="568.9" r="1.5" fill="#ffffff" fill-opacity="0.49" class="m4"/><circle cx="576.4" cy="465.8" r="1.2" fill="#ffffff" fill-opacity="0.78"/><circle cx="254.4" cy="469" r="1.5" fill="#ffffff" fill-opacity="0.59"/><circle cx="862.7" cy="696.4" r="1.8" fill="#ffffff" fill-opacity="0.8" class="m4"/><circle cx="931.5" cy="53" r="1.5" fill="#ffffff" fill-opacity="0.48" class="m4"/><circle cx="528.8" cy="652.2" r="1.5" fill="#ffffff" fill-opacity="0.78"/><circle cx="368.8" cy="342.3" r="1.2" fill="#ffffff" fill-opacity="0.74" class="m2"/><circle cx="1574.2" cy="178.5" r="1.2" fill="#ffffff" fill-opacity="0.79"/><circle cx="515.8" cy="834.5" r="2.4" fill="#ffffff" fill-opacity="0.53"/><circle cx="80.4" cy="297.1" r="2.4" fill="#ffffff" fill-opacity="0.39"/><circle cx="1317.5" cy="147.5" r="1.2" fill="#ffffff" fill-opacity="0.38" class="m4"/><circle cx="810.8" cy="271.7" r="1.8" fill="#ffffff" fill-opacity="0.58" class="m4"/><circle cx="345.5" cy="285.5" r="1.2" fill="#ffffff" fill-opacity="0.52" class="m2"/><circle cx="1138.7" cy="421.9" r="2.4" fill="#ffffff" fill-opacity="0.42"/><circle cx="1118.3" cy="248.3" r="1.8" fill="#ffffff" fill-opacity="0.72" class="m4"/><circle cx="982.3" cy="78.7" r="1.5" fill="#ffffff" fill-opacity="0.46"/><circle cx="1207.2" cy="660.2" r="1.2" fill="#ffffff" fill-opacity="0.55"/><circle cx="393.5" cy="170" r="1.2" fill="#ffffff" fill-opacity="0.92" class="m2"/><circle cx="1195.6" cy="240.2" r="2.4" fill="#ffffff" fill-opacity="0.37"/><circle cx="1184.4" cy="331" r="1.5" fill="#ffffff" fill-opacity="0.87"/><circle cx="477.3" cy="723.1" r="1.5" fill="#ffffff" fill-opacity="0.44" class="m4"/><circle cx="524.4" cy="45.9" r="1.8" fill="#ffffff" fill-opacity="0.93"/><circle cx="839.1" cy="136.6" r="1.8" fill="#ffffff" fill-opacity="0.64"/><circle cx="799.5" cy="43.5" r="1.5" fill="#ffffff" fill-opacity="0.78"/><circle cx="1546.8" cy="308.6" r="1.5" fill="#ffffff" fill-opacity="0.52"/><circle cx="510.9" cy="397.9" r="2.4" fill="#ffffff" fill-opacity="0.54"/><circle cx="680.6" cy="66.3" r="2.4" fill="#ffffff" fill-opacity="0.85"/><circle cx="1020" cy="792" r="2.4" fill="#ffffff" fill-opacity="0.43"/><circle cx="185.8" cy="122.2" r="1.8" fill="#ffffff" fill-opacity="0.53"/><circle cx="736.5" cy="390.9" r="1.8" fill="#ffffff" fill-opacity="0.56"/><circle cx="793.5" cy="765.8" r="2.4" fill="#ffffff" fill-opacity="0.78"/><circle cx="777.7" cy="354.5" r="1.8" fill="#ffffff" fill-opacity="0.66" class="m2"/><circle cx="747.1" cy="585" r="1.8" fill="#ffffff" fill-opacity="0.73" class="m2"/><circle cx="151" cy="257.2" r="1.8" fill="#ffffff" fill-opacity="0.47"/><circle cx="1391.5" cy="391.5" r="2.4" fill="#ffffff" fill-opacity="0.91" class="m3"/><circle cx="85.7" cy="887.9" r="1.2" fill="#ffffff" fill-opacity="0.46" class="m4"/><circle cx="1020.2" cy="443.8" r="2.4" fill="#ffffff" fill-opacity="0.71" class="m4"/><circle cx="825.2" cy="693.5" r="1.2" fill="#ffffff" fill-opacity="0.58"/><circle cx="853.2" cy="235.8" r="1.5" fill="#ffffff" fill-opacity="0.82"/><circle cx="962.3" cy="461.4" r="1.5" fill="#ffffff" fill-opacity="0.77" class="m4"/><circle cx="785.4" cy="573.3" r="2.4" fill="#ffffff" fill-opacity="0.46" class="m3"/><circle cx="881.4" cy="840.7" r="2.4" fill="#ffffff" fill-opacity="0.56" class="m2"/><circle cx="637.8" cy="642.8" r="1.2" fill="#ffffff" fill-opacity="0.38" class="m2"/><circle cx="1373.1" cy="376.2" r="1.5" fill="#ffffff" fill-opacity="0.62" class="m3"/><circle cx="97.4" cy="465.3" r="1.8" fill="#ffffff" fill-opacity="0.87"/><circle cx="39.2" cy="0.9" r="1.2" fill="#ffffff" fill-opacity="0.71"/><circle cx="1278.4" cy="420.8" r="1.8" fill="#ffffff" fill-opacity="0.57"/><circle cx="103.1" cy="661.3" r="1.2" fill="#ffffff" fill-opacity="0.5" class="m2"/><circle cx="305.6" cy="374.5" r="2.4" fill="#ffffff" fill-opacity="0.77"/><circle cx="94.3" cy="573.2" r="1.8" fill="#ffffff" fill-opacity="0.88"/><circle cx="254.9" cy="556.5" r="2.4" fill="#ffffff" fill-opacity="0.64" class="m4"/><circle cx="1314.5" cy="173" r="1.8" fill="#ffffff" fill-opacity="0.92" class="m3"/><circle cx="845.5" cy="349.4" r="1.5" fill="#ffffff" fill-opacity="0.76"/><circle cx="1154.9" cy="341.1" r="1.2" fill="#ffffff" fill-opacity="0.57"/><circle cx="559.4" cy="224" r="2.4" fill="#ffffff" fill-opacity="0.68"/><circle cx="989.6" cy="861.9" r="1.8" fill="#ffffff" fill-opacity="0.86" class="m4"/><circle cx="1572.1" cy="787.2" r="2.4" fill="#ffffff" fill-opacity="0.84" class="m3"/><circle cx="675.4" cy="240.3" r="2.4" fill="#ffffff" fill-opacity="0.51" class="m2"/><circle cx="783.6" cy="584.3" r="1.8" fill="#ffffff" fill-opacity="0.48" class="m2"/><circle cx="1253.6" cy="723" r="1.5" fill="#ffffff" fill-opacity="0.53" class="m3"/><circle cx="1052.1" cy="128.4" r="1.5" fill="#ffffff" fill-opacity="0.92"/><circle cx="1302" cy="656.6" r="1.8" fill="#ffffff" fill-opacity="0.77" class="m2"/><circle cx="725.4" cy="543.2" r="1.8" fill="#ffffff" fill-opacity="0.78" class="m2"/><circle cx="627.3" cy="130.3" r="1.8" fill="#ffffff" fill-opacity="0.91" class="m2"/><circle cx="1248" cy="523.9" r="562.9" fill="url(#g5)" class="m6"/><g class="m7"><ellipse cx="1248" cy="523.9" rx="615.7" ry="126.7" fill="none" stroke="#e9d5ff" stroke-width="24.6" stroke-opacity="0.7" transform="rotate(11.1 1248 523.9)"/><circle cx="1248" cy="523.9" r="351.8" fill="url(#l8)"/><rect x="964.3" y="315.9" width="567.5" height="21.1" fill="#1a0e33" fill-opacity="0.18"/><rect x="906.1" y="440.9" width="683.8" height="21.1" fill="#1a0e33" fill-opacity="0.18"/><rect x="897.3" y="551.5" width="701.5" height="21.1" fill="#1a0e33" fill-opacity="0.18"/><rect x="929.1" y="672.5" width="637.8" height="21.1" fill="#1a0e33" fill-opacity="0.18"/><path d="M632.3,523.9A615.7,126.7 0 0 0 1863.7,523.9" fill="none" stroke="#e9d5ff" stroke-width="24.6" stroke-opacity="0.85" transform="rotate(11.1 1248 523.9)"/></g><circle cx="398.5" cy="254.3" r="42.2" fill="#c4b5fd" fill-opacity="0.85" class="m9"/></svg>
